# xmcd
#
# Track frame offsets:
#	150
#	31035
#	55650
#	80165
#	97640
#	114827
#	137687
#	161512
#	180190
#	199935
#
# Disc length: 2989 seconds
#
# Revision: 1
# Processed by: cddbd v1.5.2PL0 Copyright (c) Steve Scherf et al.
# Submitted via: EZCDAudioConverter 8.0.2.1
#
DISCID=6c0bab0a
DTITLE=Hương Lan - Hương Lan Đặc biệt
DYEAR=1992
DGENRE=country
TTITLE0=Biển mặn
TTITLE1=Nhật ký đời tôi
TTITLE2=Một chuyến bay đêm
TTITLE3=Tuổi học trò
TTITLE4=Nó và tôi
TTITLE5=Lòng mẹ
TTITLE6=Xin anh giữ trọn tình quê
TTITLE7=Cảm ơn
TTITLE8=Đưa em vào hạ
TTITLE9=Nén hương yêu
EXTD=
EXTT0=
EXTT1=
EXTT2=
EXTT3=
EXTT4=
EXTT5=
EXTT6=
EXTT7=
EXTT8=
EXTT9=
PLAYORDER=
